<svg id="Layer_1" data-name="Layer 1" xmlns="http://www.w3.org/2000/svg" viewBox="0 0 605.64 233.15"><defs><style>.cls-1,.cls-2,.cls-3,.cls-5,.cls-6{fill:none;stroke:#00aeef;}.cls-1,.cls-2,.cls-3,.cls-5,.cls-6,.cls-7{stroke-miterlimit:10;}.cls-2{stroke-width:0.84px;}.cls-3{stroke-width:0.75px;}.cls-4{fill:#8ed8f8;}.cls-5{stroke-width:2.16px;}.cls-6{stroke-width:2.17px;}.cls-7{fill:#fbb040;stroke:#fbb040;stroke-width:1.14px;}.cls-8{font-size:69px;font-family:Apple-Chancery, Apple Chancery;}.cls-10,.cls-8{fill:#231f20;}.cls-9{letter-spacing:-0.01em;}.cls-10{font-size:18px;font-family:MyriadPro-Regular, Myriad Pro;}.cls-11{font-size:60px;fill:#ed1c24;font-family:AmericanTypewriter, American Typewriter;}.cls-12{letter-spacing:-0.01em;}.cls-13{letter-spacing:0.02em;}.cls-14{letter-spacing:-0.02em;}.cls-15{letter-spacing:-0.03em;}.cls-16{letter-spacing:-0.03em;}</style></defs><path class="cls-1" d="M566.49,4.18c0,17.88-48.34,32.34-108.07,32.34" transform="translate(-3.82 -4.18)"/><path class="cls-1" d="M562.28,107.37C562.28,89.5,514,75,454.22,75" transform="translate(-3.82 -4.18)"/><path class="cls-2" d="M525.2,6.72c0,17.88-34.46,32.35-77,32.35" transform="translate(-3.82 -4.18)"/><path class="cls-3" d="M490,102.32C490,84.45,462.59,70,428.79,70" transform="translate(-3.82 -4.18)"/><rect class="cls-4" x="241.33" y="51.16" width="223.85" height="7.42"/><polygon class="cls-4" points="468.35 44.74 316.05 51.22 320.03 55.54 472.32 49.06 468.35 44.74"/><polygon class="cls-4" points="455.28 64.38 302.98 57.91 306.96 53.59 459.26 60.06 455.28 64.38"/><ellipse class="cls-4" cx="485.67" cy="54.5" rx="74.76" ry="19.62" transform="translate(-6.03 21.82) rotate(-3.06)"/><path class="cls-5" d="M428.23,70c0-4-81.89-7.23-183.09-7.23" transform="translate(-3.82 -4.18)"/><path class="cls-5" d="M428.23,48.11c0,4-81.89,7.22-183.09,7.22" transform="translate(-3.82 -4.18)"/><path class="cls-5" d="M428.23,48.11c0-5,10.29-9,23-9" transform="translate(-3.82 -4.18)"/><path class="cls-5" d="M451.24,39.07c0-2.82,17.83-5.09,39.86-5.09" transform="translate(-3.82 -4.18)"/><path class="cls-5" d="M497.33,43.59c0,4.49-20.62,8.13-46.09,8.13" transform="translate(-3.82 -4.18)"/><path class="cls-5" d="M482.38,39.07c0-2.82,14.48-5.09,32.38-5.09" transform="translate(-3.82 -4.18)"/><path class="cls-5" d="M523.48,39.07c0,4.74-8.35,8.58-18.68,8.58" transform="translate(-3.82 -4.18)"/><path class="cls-6" d="M564,47.65c0-6.15-22.28-11.13-49.82-11.13" transform="translate(-3.82 -4.18)"/><path class="cls-6" d="M539.67,46.16c0,6.15-22.28,11.13-49.82,11.13" transform="translate(-3.82 -4.18)"/><path class="cls-5" d="M428.23,69.94c0,2.81,17.83,5.09,39.86,5.09" transform="translate(-3.82 -4.18)"/><path class="cls-5" d="M474.32,65.42c0-4.49-20.62-8.13-46.09-8.13" transform="translate(-3.82 -4.18)"/><path class="cls-5" d="M459.37,69.94c0,2.81,14.48,5.09,32.38,5.09" transform="translate(-3.82 -4.18)"/><path class="cls-5" d="M500.47,69.94c0-4.74-8.35-8.59-18.68-8.59" transform="translate(-3.82 -4.18)"/><path class="cls-6" d="M541,61.35c0,6.16-22.28,11.14-49.82,11.14" transform="translate(-3.82 -4.18)"/><path class="cls-6" d="M516.66,62.85c0-6.15-22.28-11.13-49.82-11.13" transform="translate(-3.82 -4.18)"/><line class="cls-6" x1="395.12" y1="51.16" x2="535.23" y2="37.91"/><line class="cls-6" x1="397.61" y1="54.69" x2="565.75" y2="47.54"/><line class="cls-6" x1="317.9" y1="55.23" x2="512.85" y2="62.74"/><line class="cls-6" x1="365.22" y1="53.11" x2="553.29" y2="53.11"/><line class="cls-6" x1="292.99" y1="53.11" x2="537.13" y2="57.18"/><ellipse class="cls-7" cx="291.95" cy="155.59" rx="291.38" ry="77"/><text class="cls-8" transform="translate(187.64 71.27)">B<tspan class="cls-9" x="49.76" y="0">r</tspan><tspan x="77.49" y="0">eathe Easy</tspan></text><text class="cls-10" transform="translate(486.64 93.37)">with</text><text class="cls-11" transform="translate(49.17 174.39)"><tspan class="cls-12">B</tspan><tspan x="40.62" y="0">ASSP</tspan><tspan class="cls-13" x="197.88" y="0">R</tspan><tspan x="242.52" y="0">O-</tspan><tspan class="cls-14" x="300.35" y="0">S</tspan><tspan class="cls-15" x="336.35" y="0">T</tspan><tspan class="cls-16" x="372.59" y="0">A</tspan><tspan x="415.73" y="0">GG</tspan></text></svg>